<svg width="24" height="23" viewBox="0 0 24 23" fill="none" xmlns="http://www.w3.org/2000/svg">
<g id="Social Icons">
<path id="BG" opacity="0.1" fill-rule="evenodd" clip-rule="evenodd" d="M0.851471 11.5283C0.851471 5.37749 5.83773 0.391235 11.9886 0.391235C18.1394 0.391235 23.1257 5.37749 23.1257 11.5283C23.1257 17.6792 18.1394 22.6655 11.9886 22.6655C5.83773 22.6655 0.851471 17.6792 0.851471 11.5283Z" fill="white"/>
<path id="Path" fill-rule="evenodd" clip-rule="evenodd" d="M11.9891 5.58856C10.376 5.58856 10.1735 5.59562 9.53995 5.62445C8.9076 5.65341 8.47597 5.75352 8.0983 5.9004C7.70763 6.05212 7.37623 6.25506 7.04607 6.58534C6.71567 6.9155 6.51273 7.24689 6.36052 7.63744C6.21326 8.01524 6.11302 8.44699 6.08456 9.07909C6.05622 9.71268 6.0488 9.91525 6.0488 11.5284C6.0488 13.1416 6.05597 13.3434 6.08468 13.977C6.11376 14.6093 6.21388 15.041 6.36064 15.4187C6.51248 15.8093 6.71542 16.1407 7.0457 16.4709C7.37574 16.8013 7.70713 17.0047 8.09755 17.1564C8.47548 17.3033 8.90723 17.4034 9.53945 17.4324C10.173 17.4612 10.3754 17.4683 11.9884 17.4683C13.6017 17.4683 13.8035 17.4612 14.4371 17.4324C15.0695 17.4034 15.5016 17.3033 15.8795 17.1564C16.2701 17.0047 16.601 16.8013 16.931 16.4709C17.2614 16.1407 17.4643 15.8093 17.6165 15.4188C17.7626 15.041 17.8628 14.6092 17.8925 13.9771C17.921 13.3435 17.9284 13.1416 17.9284 11.5284C17.9284 9.91525 17.921 9.7128 17.8925 9.07922C17.8628 8.44687 17.7626 8.01524 17.6165 7.63756C17.4643 7.2469 17.2614 6.9155 16.931 6.58534C16.6006 6.25494 16.2702 6.05199 15.8791 5.9004C15.5005 5.75352 15.0686 5.65341 14.4362 5.62445C13.8027 5.59562 13.601 5.58856 11.9873 5.58856H11.9891ZM11.4563 6.65896C11.6144 6.65871 11.7909 6.65896 11.9891 6.65896C13.5751 6.65896 13.763 6.66465 14.3893 6.69311C14.9685 6.71959 15.2828 6.81636 15.4922 6.89766C15.7693 7.00532 15.967 7.13402 16.1747 7.34192C16.3826 7.54981 16.5113 7.74781 16.6192 8.025C16.7005 8.23413 16.7974 8.54845 16.8238 9.12759C16.8523 9.75374 16.8584 9.94184 16.8584 11.527C16.8584 13.1122 16.8523 13.3003 16.8238 13.9265C16.7973 14.5056 16.7005 14.8199 16.6192 15.0291C16.5116 15.3063 16.3826 15.5036 16.1747 15.7114C15.9668 15.9193 15.7695 16.048 15.4922 16.1557C15.283 16.2373 14.9685 16.3339 14.3893 16.3603C13.7632 16.3888 13.5751 16.395 11.9891 16.395C10.4031 16.395 10.2151 16.3888 9.58893 16.3603C9.00979 16.3336 8.69547 16.2368 8.48597 16.1555C8.20878 16.0479 8.01078 15.9192 7.80289 15.7113C7.59499 15.5034 7.46629 15.3059 7.35839 15.0286C7.27708 14.8195 7.18019 14.5051 7.15383 13.926C7.12537 13.2998 7.11968 13.1117 7.11968 11.5256C7.11968 9.93936 7.12537 9.75226 7.15383 9.1261C7.18031 8.54696 7.27708 8.23265 7.35839 8.02327C7.46605 7.74607 7.59499 7.54808 7.80289 7.34018C8.01078 7.13229 8.20878 7.00359 8.48597 6.89568C8.69535 6.81401 9.00979 6.71749 9.58893 6.69088C10.1369 6.66613 10.3492 6.65871 11.4563 6.65747V6.65896ZM15.1598 7.64522C14.7663 7.64522 14.447 7.96412 14.447 8.35776C14.447 8.75127 14.7663 9.07054 15.1598 9.07054C15.5533 9.07054 15.8726 8.75127 15.8726 8.35776C15.8726 7.96424 15.5533 7.64522 15.1598 7.64522ZM11.9892 8.47804C10.3046 8.47804 8.93879 9.84383 8.93879 11.5284C8.93879 13.213 10.3046 14.5781 11.9892 14.5781C13.6737 14.5781 15.039 13.213 15.039 11.5284C15.039 9.84383 13.6737 8.47804 11.9892 8.47804ZM11.9891 9.54845C13.0826 9.54845 13.9691 10.4348 13.9691 11.5284C13.9691 12.6218 13.0826 13.5084 11.9891 13.5084C10.8956 13.5084 10.0092 12.6218 10.0092 11.5284C10.0092 10.4348 10.8956 9.54845 11.9891 9.54845Z" fill="white"/>
</g>
</svg>
