<svg width="23" height="23" viewBox="0 0 23 23" fill="none" xmlns="http://www.w3.org/2000/svg">
<g id="Social Icons">
<path id="BG" opacity="0.1" fill-rule="evenodd" clip-rule="evenodd" d="M0.262817 11.5283C0.262817 5.37749 5.24907 0.391235 11.3999 0.391235C17.5508 0.391235 22.537 5.37749 22.537 11.5283C22.537 17.6792 17.5508 22.6655 11.3999 22.6655C5.24907 22.6655 0.262817 17.6792 0.262817 11.5283Z" fill="white"/>
<path id="Path" fill-rule="evenodd" clip-rule="evenodd" d="M11.0664 9.4436L11.0897 9.82897L10.7002 9.78178C9.28241 9.6009 8.04377 8.98745 6.9921 7.95718L6.47794 7.44598L6.34551 7.82348C6.06507 8.665 6.24424 9.55371 6.8285 10.1514C7.14011 10.4817 7.07 10.5289 6.53248 10.3323C6.34551 10.2694 6.18192 10.2222 6.16634 10.2458C6.11181 10.3009 6.29877 11.0165 6.44678 11.2997C6.64933 11.6929 7.06221 12.0783 7.51404 12.3063L7.89576 12.4872L7.44393 12.4951C7.00768 12.4951 6.9921 12.503 7.03884 12.6681C7.19464 13.1793 7.81007 13.722 8.4956 13.9579L8.97859 14.1231L8.55792 14.3748C7.93471 14.7365 7.20243 14.941 6.47015 14.9567C6.1196 14.9646 5.83136 14.9961 5.83136 15.0197C5.83136 15.0983 6.78176 15.5387 7.33486 15.7118C8.99417 16.223 10.9651 16.0027 12.4452 15.1298C13.4969 14.5085 14.5486 13.2737 15.0394 12.0783C15.3042 11.4412 15.5691 10.2773 15.5691 9.71887C15.5691 9.35709 15.5925 9.3099 16.0287 8.87735C16.2858 8.62568 16.5273 8.35041 16.574 8.27177C16.6519 8.12234 16.6441 8.12234 16.2468 8.25604C15.5847 8.49198 15.4912 8.46052 15.8184 8.10661C16.0599 7.85494 16.3481 7.39879 16.3481 7.26509C16.3481 7.24149 16.2312 7.28082 16.0988 7.3516C15.9586 7.43025 15.647 7.54822 15.4133 7.619L14.9926 7.7527L14.6109 7.49316C14.4006 7.3516 14.1045 7.19431 13.9487 7.14712C13.5514 7.03701 12.9438 7.05274 12.5854 7.17858C11.6117 7.53249 10.9962 8.44479 11.0664 9.4436Z" fill="white"/>
</g>
</svg>
