<svg width="23" height="23" viewBox="0 0 23 23" fill="none" xmlns="http://www.w3.org/2000/svg">
<g id="Social Icons">
<path id="BG" opacity="0.1" fill-rule="evenodd" clip-rule="evenodd" d="M0.674133 11.5283C0.674133 5.37749 5.66039 0.391235 11.8112 0.391235C17.9621 0.391235 22.9484 5.37749 22.9484 11.5283C22.9484 17.6792 17.9621 22.6655 11.8112 22.6655C5.66039 22.6655 0.674133 17.6792 0.674133 11.5283Z" fill="white"/>
<path id="Path" fill-rule="evenodd" clip-rule="evenodd" d="M16.4525 7.69968C16.9636 7.83994 17.3662 8.25323 17.5028 8.77807C17.751 9.72928 17.751 11.714 17.751 11.714C17.751 11.714 17.751 13.6986 17.5028 14.6499C17.3662 15.1747 16.9636 15.588 16.4525 15.7284C15.5261 15.9832 11.8113 15.9832 11.8113 15.9832C11.8113 15.9832 8.09639 15.9832 7.16998 15.7284C6.65882 15.588 6.25626 15.1747 6.11965 14.6499C5.87146 13.6986 5.87146 11.714 5.87146 11.714C5.87146 11.714 5.87146 9.72928 6.11965 8.77807C6.25626 8.25323 6.65882 7.83994 7.16998 7.69968C8.09639 7.44476 11.8113 7.44476 11.8113 7.44476C11.8113 7.44476 15.5261 7.44476 16.4525 7.69968ZM10.6976 10.0434V13.7558L13.6674 11.8996L10.6976 10.0434Z" fill="white"/>
</g>
</svg>
